# xmcd
#
# Track frame offsets: 
#        150
#        14283
#        34892
#        48297
#        65323
#        82544
#        97030
#        111438
#        128774
#        145849
#        161591
#        177233
#        190107
#        204024
#        217975
#        233385
#        247129
#        261815
#        280641
#        296449
#        311192
#
# Disc length: 4347 seconds
#
# Revision: 0
# Processed by: cddbd v1.5.2PL0 Copyright (c) Steve Scherf et al.
# Submitted via: ExactAudioCopy v0.99pb4
#
DISCID=1d10f915
DTITLE=Various Artist - Hits Van Hier - Het Beste Van 2015 - CD2
DYEAR=2015
DGENRE=Pop-Folk
TTITLE0=Niels Destadsbader - Hey Pa
TTITLE1=Sasha and Davy - Nooit Meer Alleen
TTITLE2=Bart Kaëll, Garry Hagger, De Romeo's and Willy Sommers - Omdat I
TTITLE2=k Vlaming Ben
TTITLE3=Thé and Vrienden - Iedereen Is Van De Wereld
TTITLE4=Stan Van Samang - Een Ster (Live)
TTITLE5=Maartje Van Neygen - Nood Aan Jou
TTITLE6=Michael Lanzo - Wie Ben Ik
TTITLE7=Bart Herman - Mijn Prachtige Vlaanderen
TTITLE8=De Geest - Maan
TTITLE9=Aurélie - Meisje Met De Parel
TTITLE10=Amaryllis Temmerman - Mooie Tijd
TTITLE11=Rudy Meyns - Wanneer Zie Ik Je Weer
TTITLE12=Teek - Jij Hoort Bij Mij
TTITLE13=Wim Leys - Vannacht Zijn We Samen
TTITLE14=Sugarfree - Comment Ça Va
TTITLE15=Elke Taelman - Pierrot
TTITLE16=Paul Severs - Vanavond Zet Ik De Bloemetjes Eens Buiten
TTITLE17=Bruce Berger - Dit Is Het Lied
TTITLE18=Marc Dex - Weet Je Nog
TTITLE19=Yvan Verelli - Ik Leef Alleen Maar Voor Jou
TTITLE20=Udo - Get Outta My Life
EXTD=
EXTT0=
EXTT1=
EXTT2=
EXTT3=
EXTT4=
EXTT5=
EXTT6=
EXTT7=
EXTT8=
EXTT9=
EXTT10=
EXTT11=
EXTT12=
EXTT13=
EXTT14=
EXTT15=
EXTT16=
EXTT17=
EXTT18=
EXTT19=
EXTT20=
PLAYORDER=
